<svg width="36" height="37" viewBox="0 0 36 37" fill="none" xmlns="http://www.w3.org/2000/svg">
<path d="M18.7112 3.51057C18.0404 2.01653 19.3248 0.41501 20.9052 0.69401C29.3456 2.18393 35.7574 9.55083 35.7574 18.4194C35.7574 28.3604 27.6984 36.4194 17.7574 36.4194C8.88873 36.4194 1.52183 30.0076 0.0319104 21.5672C-0.24711 19.9866 1.35455 18.7026 2.84847 19.3732C4.34437 20.0448 6.00437 20.4194 7.75725 20.4194C14.3848 20.4194 19.7574 15.0468 19.7574 8.41935C19.7574 6.66647 19.3828 5.00647 18.7112 3.51057ZM4.88697 9.85089L5.01447 10.1295C5.56001 11.2582 6.41943 12.2055 7.48935 12.8581L7.68801 12.9745C7.78033 13.0264 7.78033 13.1594 7.68801 13.2113L7.48935 13.3277C6.41943 13.9803 5.56001 14.9276 5.01447 16.0562L4.88697 16.3348C4.83701 16.4472 4.67747 16.4472 4.62753 16.3348L4.50001 16.0562C3.95447 14.9276 3.09507 13.9803 2.02515 13.3277L1.82647 13.2113C1.73417 13.1594 1.73417 13.0264 1.82647 12.9745L2.02515 12.8581C3.09507 12.2055 3.95447 11.2582 4.50001 10.1295L4.62753 9.85089C4.67747 9.73849 4.83701 9.73849 4.88697 9.85089ZM10.5506 0.13419C10.6301 -0.04473 10.884 -0.04473 10.9635 0.13419L11.1665 0.57771C12.0349 2.37415 13.4028 3.88213 15.106 4.92087L15.4222 5.10617C15.569 5.18881 15.569 5.40039 15.4222 5.48303L15.106 5.66833C13.4028 6.70707 12.0349 8.21505 11.1665 10.0115C11.0957 10.1579 11.0296 10.3064 10.9635 10.455C10.884 10.6339 10.6301 10.6339 10.5506 10.455L10.3476 10.0115C9.47927 8.21505 8.11131 6.70707 6.40829 5.66833L6.09205 5.48303C5.94511 5.40039 5.94511 5.18881 6.09205 5.10617L6.40829 4.92087C8.11131 3.88213 9.47927 2.37415 10.3476 0.57771L10.5506 0.13419Z" fill="#616AFB"/>
</svg>
